<?xml version="1.0" encoding="UTF-8"?>
<svg id="Layer_1" data-name="Layer 1" xmlns="http://www.w3.org/2000/svg" width="150" height="60" viewBox="0 0 150 60">
  <defs>
    <style>
      .cls-1 {
        fill: #fbce37;
      }

      .cls-1, .cls-2, .cls-3 {
        stroke-width: 0px;
      }

      .cls-2 {
        fill: #004f71;
      }

      .cls-3 {
        fill: #ffcb05;
      }
    </style>
  </defs>
  <rect class="cls-2" width="150" height="60"/>
  <rect class="cls-1" y="49.56" width="150" height="10.44"/>
  <g>
    <path class="cls-3" d="m38.02,15.51l3.25-4.97c1.38,1.68,3.42,4.61,4.68,8.75,1.45,4.77,1.16,8.85.83,11.1-.59-2.38-1.73-5.75-4.04-9.28-1.58-2.42-3.28-4.26-4.72-5.6Z"/>
    <path class="cls-3" d="m42.62,24.47c-3.17-5.48-7.68-8.17-9.66-9.21l-8.32,12.84c2.69.49,6.46,1.49,10.54,3.68,5.04,2.7,8.4,6.05,10.36,8.34.31-2.06,1.06-8.78-2.92-15.66Zm-7.93,3.86c-2.08,0-3.77-1.69-3.77-3.77s1.69-3.77,3.77-3.77,3.77,1.69,3.77,3.77-1.69,3.77-3.77,3.77Z"/>
    <g>
      <path class="cls-1" d="m67.45,13.78v13.74h-3.14v-7.99l-3.55,5.83h-.35l-3.55-5.83v7.99h-3.14v-13.74h3.14l3.73,6.1,3.73-6.1h3.14Z"/>
      <path class="cls-1" d="m81.42,25.73c-1.39,1.37-3.08,2.06-5.06,2.06s-3.68-.69-5.06-2.06c-1.39-1.37-2.08-3.07-2.08-5.08s.69-3.71,2.08-5.08c1.39-1.37,3.07-2.06,5.06-2.06s3.68.69,5.06,2.06c1.39,1.37,2.08,3.07,2.08,5.08s-.69,3.71-2.08,5.08Zm-7.92-2.14c.77.76,1.72,1.14,2.86,1.14s2.09-.38,2.86-1.14c.76-.76,1.15-1.74,1.15-2.94s-.38-2.18-1.15-2.94c-.77-.76-1.72-1.14-2.86-1.14s-2.09.38-2.86,1.14c-.77.76-1.15,1.74-1.15,2.94s.38,2.19,1.15,2.94Z"/>
      <path class="cls-1" d="m99.01,13.78v13.74h-3.14v-7.99l-3.55,5.83h-.35l-3.55-5.83v7.99h-3.14v-13.74h3.14l3.73,6.1,3.73-6.1h3.14Z"/>
      <path class="cls-1" d="m112.98,25.73c-1.39,1.37-3.08,2.06-5.06,2.06s-3.68-.69-5.06-2.06c-1.39-1.37-2.08-3.07-2.08-5.08s.69-3.71,2.08-5.08c1.39-1.37,3.07-2.06,5.06-2.06s3.68.69,5.06,2.06c1.39,1.37,2.08,3.07,2.08,5.08s-.69,3.71-2.08,5.08Zm-7.92-2.14c.77.76,1.72,1.14,2.86,1.14s2.09-.38,2.86-1.14c.77-.76,1.15-1.74,1.15-2.94s-.38-2.18-1.15-2.94-1.72-1.14-2.86-1.14-2.09.38-2.86,1.14-1.15,1.74-1.15,2.94.38,2.19,1.15,2.94Z"/>
    </g>
    <g>
      <path class="cls-1" d="m56.2,34.01c-.47-.04-.71.14-.71.53h.71v1.1h-.71v2.71h-1.14v-2.71h-.51v-1.1h.51c0-.55.15-.97.46-1.25.31-.29.77-.41,1.39-.38v1.1Z"/>
      <path class="cls-1" d="m57.76,35.22c.07-.24.21-.43.43-.56.22-.13.45-.19.71-.19v1.29c-.28-.05-.54,0-.78.14-.24.14-.36.38-.36.73v1.72h-1.14v-3.81h1.14v.68Z"/>
      <path class="cls-1" d="m62.58,37.88c-.39.39-.87.58-1.43.58s-1.04-.19-1.43-.58c-.39-.39-.59-.86-.59-1.43s.2-1.04.59-1.43c.39-.39.87-.58,1.43-.58s1.04.19,1.43.58c.39.39.59.86.59,1.43s-.2,1.04-.59,1.43Zm-2.06-.78c.17.17.38.25.62.25s.46-.08.62-.25c.17-.17.25-.38.25-.65s-.08-.48-.25-.65c-.17-.17-.38-.25-.62-.25s-.46.08-.62.25c-.17.17-.25.38-.25.65s.08.48.25.65Z"/>
      <path class="cls-1" d="m68.08,34.44c.44,0,.79.14,1.05.43.26.29.4.67.4,1.15v2.34h-1.14v-2.24c0-.19-.05-.35-.14-.46-.09-.11-.23-.17-.41-.17-.19,0-.33.06-.44.19s-.16.3-.16.53v2.15h-1.14v-2.24c0-.19-.05-.35-.14-.46-.09-.11-.23-.17-.41-.17-.19,0-.33.06-.44.19-.1.13-.16.3-.16.53v2.15h-1.14v-3.81h1.14v.35c.21-.3.55-.46,1.02-.46.44,0,.77.17,1,.5.23-.33.6-.5,1.1-.5Z"/>
      <path class="cls-1" d="m77.58,33.02v5.33h-1.22v-3.1l-1.38,2.26h-.14l-1.38-2.26v3.1h-1.22v-5.33h1.22l1.45,2.37,1.45-2.37h1.22Z"/>
      <path class="cls-1" d="m82.08,33.02v1.17h-1.37v4.16h-1.22v-4.16h-1.37v-1.17h3.96Z"/>
      <path class="cls-1" d="m85.58,33.02h1.22v5.33h-.91l-2.06-2.89v2.89h-1.22v-5.33h.91l2.06,2.89v-2.89Z"/>
    </g>
  </g>
</svg>