<?xml version="1.0" encoding="UTF-8"?>
<svg id="Layer_1" data-name="Layer 1" xmlns="http://www.w3.org/2000/svg" width="150" height="60" viewBox="0 0 150 60">
  <defs>
    <style>
      .cls-1 {
        fill: #0b79e9;
      }

      .cls-1, .cls-2, .cls-3, .cls-4, .cls-5, .cls-6, .cls-7, .cls-8, .cls-9, .cls-10 {
        stroke-width: 0px;
      }

      .cls-2 {
        fill: #0e7bea;
      }

      .cls-3 {
        fill: #0c7aea;
      }

      .cls-4 {
        fill: #107ceb;
      }

      .cls-5 {
        fill: #0b7aea;
      }

      .cls-6 {
        fill: #117dea;
      }

      .cls-7 {
        fill: #0d7bea;
      }

      .cls-8 {
        fill: #333;
      }

      .cls-9 {
        fill: #0b79ea;
      }

      .cls-10 {
        fill: #fff;
      }
    </style>
  </defs>
  <rect class="cls-10" width="150" height="60"/>
  <path class="cls-3" d="m14.69,21.21c3.3-1.33,6.64-2.35,10.19-.58.33.16.85.05,1.25-.07,2.35-.7,4.7-1.19,7.17-.53,2.16.58,3.65,1.98,3.78,4.09.24,3.9.07,7.83.07,11.83h-2.66c-.04-.44-.11-.87-.11-1.3,0-2.92,0-5.84,0-8.75-.01-2.32-.94-3.33-3.26-3.3-1.32.01-2.64.29-3.9.44v12.91h-2.66c-.04-.39-.11-.78-.11-1.17,0-2.99,0-5.99,0-8.98,0-2.13-.89-3.13-3.03-3.19-1.29-.04-2.59.19-3.97.3v13.04h-2.74v-14.73Z"/>
  <path class="cls-5" d="m107.88,14.24h2.86v5.83c1.29-.13,2.48-.37,3.66-.35,4.55.07,7.14,2.59,7.33,7.3.07,1.61-.2,3.28-.63,4.84-.72,2.63-2.88,4.24-5.62,4.37-1.19.06-2.42.01-3.57-.24-2.63-.57-4.07-2.46-4.07-5.16,0-5.16,0-10.32,0-15.49,0-.33.03-.66.06-1.11Zm2.86,8.67c0,3.01,0,5.77,0,8.52,0,.94.58,1.59,1.42,1.81.92.24,1.91.28,2.87.31,1.56.05,2.61-.72,3.21-2.15.74-1.78.81-3.63.44-5.48-.51-2.52-1.6-3.43-4.18-3.42-1.22,0-2.44.26-3.76.41Z"/>
  <path class="cls-9" d="m82.51,32.91c1.57.93,3.15,1.24,4.62.57,1.37-.63,2.52-1.7,4-2.74.41.23,1.15.63,1.87,1.03-1.63,3.48-5,5.23-9.09,4.65-3.48-.5-6.52-3.99-6.8-7.4-.39-4.87,2.85-7.9,5.91-8.85,3.64-1.13,7.74.46,9.69,3.78-3.36,2.95-6.74,5.92-10.21,8.97Zm6.28-9.21c-2.41-1.63-5.22-1.44-7.18.37-1.89,1.74-2.31,4.58-.97,6.8,2.7-2.37,5.38-4.74,8.14-7.17Z"/>
  <path class="cls-3" d="m48.73,36.3c-5.21-.01-7.34-2.92-7.64-7.49-.08-1.28.05-2.63.36-3.88.88-3.54,3.45-5.32,7.33-5.28,4.39.05,7.04,2.38,7.4,6.75.14,1.68.05,3.46-.34,5.09-.77,3.14-3.4,4.79-7.11,4.81Zm-4.83-8.36s.06,0,.09.01c0,.41-.02.82,0,1.23.13,2.34,1.21,3.89,3.1,4.27.8.16,1.65.1,2.47.08,1.69-.03,3.07-.9,3.41-2.54.32-1.58.43-3.26.28-4.86-.24-2.54-1.71-3.71-4.28-3.81-2.73-.1-4.21.97-4.77,3.52-.15.69-.2,1.39-.29,2.09Z"/>
  <path class="cls-7" d="m63.09,22.92v13.04h-2.76v-14.68c2.99-1.33,6.14-2.1,9.47-1.17,2.06.57,3.5,2.04,3.62,4.13.21,3.86.06,7.75.06,11.72h-2.68c-.04-.43-.11-.86-.11-1.29,0-2.91,0-5.83,0-8.74-.01-2.22-.92-3.24-3.17-3.31-1.41-.04-2.82.19-4.42.31Z"/>
  <path class="cls-2" d="m100,20.05h3.98v2.68h-3.86c0,3.29-.02,6.45.01,9.62,0,.8.6,1.19,1.36,1.18.77,0,1.54-.12,2.46-.19v2.47c-3.52,1.65-6.73-.29-6.77-4.13-.03-2.58,0-5.15,0-7.73,0-.36,0-.73,0-1.15-.91-.05-1.72-.09-2.6-.13v-2.54c.81-.04,1.64-.08,2.62-.12v-4.33h2.8v4.38Z"/>
  <path class="cls-1" d="m134.53,14.22h2.7v21.73h-2.7V14.22Z"/>
  <path class="cls-4" d="m126.26,20.06h2.7v15.89h-2.7v-15.89Z"/>
  <path class="cls-6" d="m129.14,14.88v2.88h-3.01v-2.88h3.01Z"/>
  <g>
    <path class="cls-8" d="m19.86,44.3s0,.04-.02.06c-.01.02-.04.03-.07.05-.04.01-.08.02-.14.03-.06,0-.13.01-.22.01s-.16,0-.22-.01-.1-.02-.14-.03c-.03-.01-.06-.03-.07-.05s-.02-.04-.02-.06v-3.78h0l-1.35,3.77s-.02.06-.05.08-.05.04-.09.05c-.04.01-.08.02-.14.02-.06,0-.13,0-.21,0s-.15,0-.21,0c-.06,0-.11-.02-.14-.03-.04-.01-.07-.03-.09-.05s-.04-.04-.04-.07l-1.3-3.77h0v3.78s0,.04-.02.06c-.01.02-.04.03-.07.05-.04.01-.08.02-.14.03-.06,0-.13.01-.22.01s-.16,0-.21-.01-.1-.02-.14-.03c-.04-.01-.06-.03-.07-.05-.01-.02-.02-.04-.02-.06v-4.14c0-.12.03-.21.1-.28.06-.06.15-.1.26-.1h.62c.11,0,.21,0,.28.03.08.02.15.05.21.09.06.04.1.1.14.17.04.07.07.15.1.25l1,2.76h.01l1.04-2.76c.03-.1.06-.19.1-.25s.08-.12.13-.17c.05-.04.11-.07.17-.09.07-.02.14-.03.23-.03h.63c.06,0,.12,0,.17.03.05.02.08.04.12.07s.05.07.07.12c.02.05.02.1.02.16v4.14Z"/>
    <path class="cls-8" d="m24.05,42.68c0,.27-.04.52-.11.75-.07.22-.18.42-.33.58-.15.16-.33.29-.55.38-.22.09-.48.13-.77.13s-.53-.04-.74-.12c-.21-.08-.38-.19-.52-.34-.14-.15-.24-.34-.31-.56-.07-.22-.1-.47-.1-.75s.04-.52.11-.75c.07-.23.18-.42.33-.58.15-.16.33-.29.55-.38.22-.09.47-.13.77-.13s.54.04.75.12c.21.08.38.19.52.34.14.15.24.34.31.56.07.22.1.47.1.76Zm-.93.04c0-.16-.01-.3-.04-.44-.03-.13-.07-.25-.13-.35-.06-.1-.14-.17-.24-.23-.1-.05-.22-.08-.38-.08-.13,0-.25.03-.35.07-.1.05-.18.12-.25.21s-.11.21-.15.34-.05.28-.05.45c0,.16.01.3.04.44s.07.25.13.35c.06.1.14.17.24.23.1.05.22.08.37.08.14,0,.25-.02.35-.07.1-.05.18-.12.25-.21.06-.09.11-.21.14-.34s.05-.28.05-.45Z"/>
    <path class="cls-8" d="m27.98,42.67c0,.28-.03.54-.09.77-.06.23-.15.42-.27.58s-.26.28-.43.37c-.17.09-.37.13-.58.13-.11,0-.21,0-.3-.03-.09-.02-.18-.05-.27-.1-.08-.04-.17-.1-.25-.17-.08-.07-.17-.15-.25-.25v.35s0,.05-.02.07c-.01.02-.03.03-.06.04-.03.01-.07.02-.12.03-.05,0-.11,0-.18,0s-.14,0-.18,0c-.05,0-.09-.01-.12-.03-.03-.01-.05-.03-.06-.04s-.02-.04-.02-.07v-4.72s0-.04.02-.06c.01-.02.04-.04.07-.05.04-.01.08-.02.14-.03.06,0,.13-.01.22-.01s.16,0,.22.01c.06,0,.1.02.14.03.03.01.06.03.07.05.01.02.02.04.02.06v1.77c.08-.08.16-.15.24-.21s.16-.1.24-.14.17-.06.25-.08.18-.02.27-.02c.24,0,.44.05.6.14.17.09.3.22.4.38.1.16.18.35.23.56.05.21.07.44.07.68Zm-.94.06c0-.14,0-.27-.03-.39s-.06-.24-.11-.34c-.05-.1-.12-.18-.2-.24s-.18-.09-.3-.09c-.06,0-.12,0-.18.03-.06.02-.12.04-.18.09-.06.04-.12.09-.19.16s-.13.14-.21.24v1.06c.13.16.25.29.36.37s.24.13.36.13c.12,0,.22-.03.3-.09.08-.06.15-.14.2-.23s.09-.2.12-.33c.02-.12.04-.24.04-.37Z"/>
    <path class="cls-8" d="m29.68,40.03c0,.18-.04.31-.11.38s-.21.1-.41.1-.34-.03-.41-.1c-.07-.07-.11-.19-.11-.36s.04-.31.11-.38c.07-.07.21-.11.41-.11s.34.03.41.1.11.19.11.36Zm-.07,4.28s0,.04-.02.06c-.01.02-.04.03-.07.04-.03.01-.08.02-.14.03-.06,0-.13,0-.22,0s-.16,0-.22,0c-.06,0-.1-.01-.14-.03-.03-.01-.06-.03-.07-.04-.01-.02-.02-.04-.02-.06v-3.19s0-.04.02-.06.04-.03.07-.05c.04-.01.08-.02.14-.03.06,0,.13-.01.22-.01s.16,0,.22.01c.06,0,.1.02.14.03.03.01.06.03.07.05.01.02.02.04.02.06v3.19Z"/>
    <path class="cls-8" d="m31.41,44.31s0,.04-.02.06c-.01.02-.04.03-.07.04-.03.01-.08.02-.14.03-.06,0-.13,0-.22,0s-.16,0-.22,0c-.06,0-.1-.01-.14-.03-.03-.01-.06-.03-.07-.04-.01-.02-.02-.04-.02-.06v-4.72s0-.04.02-.06c.01-.02.04-.04.07-.05.04-.01.08-.02.14-.03.06,0,.13-.01.22-.01s.16,0,.22.01c.06,0,.1.02.14.03.03.01.06.03.07.05.01.02.02.04.02.06v4.72Z"/>
    <path class="cls-8" d="m35.27,42.62c0,.11-.02.19-.07.24s-.12.08-.2.08h-1.95c0,.14.02.26.05.37s.08.21.15.28c.07.08.16.14.27.18.11.04.24.06.4.06s.3-.01.42-.03c.12-.02.22-.05.31-.08.09-.03.16-.05.22-.08.06-.02.1-.03.14-.03.02,0,.04,0,.05.01.01,0,.03.02.04.04s.02.05.02.09c0,.04,0,.09,0,.15,0,.05,0,.1,0,.13,0,.04,0,.07-.01.09,0,.03-.01.05-.02.07,0,.02-.02.04-.04.05s-.06.04-.13.07c-.07.03-.16.06-.26.08-.11.03-.23.05-.37.07s-.29.03-.44.03c-.29,0-.53-.04-.75-.11-.21-.07-.39-.18-.54-.33s-.25-.33-.32-.55c-.07-.22-.11-.48-.11-.78s.04-.54.11-.77.18-.42.32-.58c.14-.16.31-.28.51-.36s.43-.12.68-.12c.27,0,.5.04.69.12.19.08.35.19.47.33s.21.31.27.5c.06.19.09.4.09.62v.14Zm-.88-.26c0-.25-.04-.45-.15-.6-.11-.15-.28-.22-.5-.22-.12,0-.21.02-.3.06s-.16.1-.21.17c-.06.07-.1.16-.13.26-.03.1-.05.21-.05.32h1.35Z"/>
    <path class="cls-8" d="m40.89,42.66c0,.29-.03.54-.09.77-.06.23-.15.42-.27.58s-.26.28-.44.37c-.17.09-.38.13-.6.13-.09,0-.18,0-.26-.03-.08-.02-.15-.05-.23-.08-.07-.04-.14-.08-.22-.14-.07-.05-.15-.12-.22-.19v1.51s0,.05-.02.06c-.01.02-.04.04-.07.05s-.08.02-.14.03c-.06,0-.13.01-.22.01s-.16,0-.22-.01c-.06,0-.1-.02-.14-.03-.03-.01-.06-.03-.07-.05-.01-.02-.02-.04-.02-.06v-4.47s0-.04.02-.06c.01-.02.03-.03.06-.04.03-.01.07-.02.12-.03.05,0,.11,0,.18,0s.13,0,.18,0,.09.01.12.03c.03.01.05.03.06.04.01.02.02.04.02.06v.38c.09-.1.18-.18.27-.25.09-.07.18-.13.27-.18.09-.05.19-.08.29-.11.1-.02.21-.04.32-.04.23,0,.43.05.6.14s.3.22.4.38c.1.16.18.35.23.56s.07.44.07.68Zm-.94.06c0-.14-.01-.27-.03-.39-.02-.12-.06-.24-.1-.33-.05-.1-.11-.18-.19-.24s-.18-.09-.3-.09c-.06,0-.12,0-.18.03-.06.02-.12.05-.18.09-.06.04-.12.09-.19.16s-.13.15-.21.24v1.05c.13.16.25.28.36.37.12.09.23.13.36.13.12,0,.22-.03.3-.09.08-.06.15-.14.2-.24s.09-.21.12-.33.04-.24.04-.37Z"/>
    <path class="cls-8" d="m44.34,44.32s-.01.06-.04.08c-.02.02-.06.03-.11.04-.05,0-.13.01-.23.01-.11,0-.19,0-.24-.01-.05,0-.08-.02-.1-.04-.02-.02-.03-.05-.03-.08v-.25c-.13.14-.28.25-.45.33-.17.08-.36.12-.56.12-.17,0-.33-.02-.47-.07-.14-.04-.27-.11-.37-.2-.1-.09-.18-.2-.24-.33s-.09-.28-.09-.45c0-.19.04-.35.11-.49.07-.14.18-.25.33-.34s.32-.16.54-.2c.21-.04.46-.06.75-.06h.31v-.19c0-.1,0-.19-.03-.26-.02-.08-.05-.14-.1-.19-.05-.05-.11-.09-.19-.11-.08-.02-.17-.04-.29-.04-.15,0-.29.02-.4.05-.12.03-.22.07-.31.11-.09.04-.17.08-.23.11-.06.03-.11.05-.15.05-.03,0-.05,0-.07-.03-.02-.02-.04-.04-.05-.07-.01-.03-.02-.07-.03-.11,0-.05-.01-.1-.01-.15,0-.07,0-.13.02-.18s.04-.08.07-.12c.03-.03.09-.07.18-.11s.18-.08.29-.12c.11-.04.24-.06.37-.09.13-.02.27-.03.41-.03.25,0,.47.02.64.07.18.05.33.12.44.23.12.1.2.23.25.39.05.16.08.35.08.57v2.15Zm-.89-1.37h-.34c-.15,0-.27.01-.37.03-.1.02-.19.05-.25.1s-.11.1-.14.16c-.03.06-.04.13-.04.21,0,.13.04.24.13.32.08.08.2.12.35.12.13,0,.24-.03.35-.1.11-.07.21-.16.32-.28v-.54Z"/>
    <path class="cls-8" d="m46.96,44.43l-.39,1.13c-.02.06-.08.1-.18.13s-.24.04-.42.04c-.1,0-.17,0-.23-.01-.06,0-.1-.02-.13-.04-.03-.02-.04-.04-.05-.07,0-.03,0-.06.02-.1l.43-1.07s-.06-.04-.08-.07-.04-.06-.06-.09l-1.1-2.94c-.03-.08-.05-.15-.05-.19s.01-.08.04-.1c.03-.03.08-.04.15-.05.07,0,.16-.01.27-.01.1,0,.18,0,.24,0,.06,0,.11.01.14.03s.06.04.08.07.03.07.05.13l.75,2.14h.01l.69-2.18c.01-.06.03-.1.06-.12.02-.02.06-.04.11-.04.05,0,.14-.01.28-.01.1,0,.19,0,.26.01.07,0,.12.03.15.05s.05.06.05.11,0,.1-.03.16l-1.07,3.13Z"/>
    <path class="cls-8" d="m53.68,44.31s0,.04-.02.06c-.01.02-.04.03-.07.04-.03.01-.08.02-.14.03-.06,0-.13,0-.22,0s-.17,0-.22,0-.1-.01-.14-.03c-.03-.01-.06-.03-.07-.04-.01-.02-.02-.04-.02-.06v-1.9c0-.11-.01-.21-.03-.29-.02-.09-.05-.16-.09-.23s-.09-.11-.16-.15c-.06-.03-.14-.05-.23-.05-.11,0-.22.04-.33.12-.11.08-.23.21-.36.37v2.13s0,.04-.02.06c-.01.02-.04.03-.07.04-.03.01-.08.02-.14.03s-.13,0-.21,0-.16,0-.22,0c-.06,0-.1-.01-.14-.03-.03-.01-.06-.03-.07-.04-.01-.02-.02-.04-.02-.06v-1.9c0-.11-.01-.21-.03-.29-.02-.09-.05-.16-.09-.23s-.09-.11-.16-.15c-.06-.03-.14-.05-.23-.05-.11,0-.22.04-.33.12-.11.08-.23.21-.36.37v2.13s0,.04-.02.06c-.01.02-.04.03-.07.04-.03.01-.08.02-.14.03-.06,0-.13,0-.22,0s-.16,0-.22,0c-.06,0-.1-.01-.14-.03-.03-.01-.06-.03-.07-.04-.01-.02-.02-.04-.02-.06v-3.2s0-.04.02-.06c.01-.02.03-.03.06-.04.03-.01.07-.02.12-.03s.11,0,.18,0c.08,0,.14,0,.19,0,.05,0,.09.01.12.03.03.01.05.03.06.04.01.02.02.04.02.06v.37c.18-.19.35-.33.53-.43.18-.09.36-.14.55-.14.13,0,.25.01.36.04.1.03.2.07.28.12.08.05.15.11.21.18.06.07.11.15.15.24.1-.1.19-.19.28-.27.09-.07.18-.13.27-.18s.18-.08.27-.1c.09-.02.18-.03.27-.03.21,0,.39.04.54.11.15.07.26.17.35.29.09.12.15.27.19.43s.06.34.06.52v2.05Z"/>
    <path class="cls-8" d="m57.52,42.62c0,.11-.02.19-.07.24s-.12.08-.2.08h-1.95c0,.14.02.26.05.37s.08.21.15.28c.07.08.16.14.27.18.11.04.24.06.4.06s.3-.01.42-.03c.12-.02.22-.05.31-.08.09-.03.16-.05.22-.08.06-.02.1-.03.14-.03.02,0,.04,0,.05.01.01,0,.03.02.04.04s.02.05.02.09c0,.04,0,.09,0,.15,0,.05,0,.1,0,.13,0,.04,0,.07-.01.09,0,.03-.01.05-.02.07,0,.02-.02.04-.04.05s-.06.04-.13.07c-.07.03-.16.06-.26.08-.11.03-.23.05-.37.07s-.29.03-.44.03c-.29,0-.53-.04-.75-.11-.21-.07-.39-.18-.54-.33s-.25-.33-.32-.55c-.07-.22-.11-.48-.11-.78s.04-.54.11-.77.18-.42.32-.58c.14-.16.31-.28.51-.36s.43-.12.68-.12c.27,0,.5.04.69.12.19.08.35.19.47.33s.21.31.27.5c.06.19.09.4.09.62v.14Zm-.88-.26c0-.25-.04-.45-.15-.6-.11-.15-.28-.22-.5-.22-.12,0-.21.02-.3.06s-.16.1-.21.17c-.06.07-.1.16-.13.26-.03.1-.05.21-.05.32h1.35Z"/>
    <path class="cls-8" d="m61.32,44.31s0,.04-.02.06c-.01.02-.04.03-.07.04-.03.01-.08.02-.14.03s-.13,0-.22,0-.16,0-.22,0-.1-.01-.14-.03c-.03-.01-.06-.03-.07-.04-.01-.02-.02-.04-.02-.06v-1.83c0-.16-.01-.28-.03-.37-.02-.09-.06-.16-.1-.23s-.1-.11-.17-.15c-.07-.03-.15-.05-.24-.05-.11,0-.23.04-.35.12-.12.08-.24.21-.37.37v2.13s0,.04-.02.06c-.01.02-.04.03-.07.04-.03.01-.08.02-.14.03-.06,0-.13,0-.22,0s-.16,0-.22,0c-.06,0-.1-.01-.14-.03-.03-.01-.06-.03-.07-.04-.01-.02-.02-.04-.02-.06v-3.2s0-.04.02-.06c.01-.02.03-.03.06-.04.03-.01.07-.02.12-.03s.11,0,.18,0c.08,0,.14,0,.19,0,.05,0,.09.01.12.03.03.01.05.03.06.04.01.02.02.04.02.06v.37c.18-.19.36-.33.54-.43.18-.09.37-.14.57-.14.22,0,.4.04.55.11.15.07.27.17.36.29s.16.27.2.43c.04.17.06.36.06.59v1.98Z"/>
    <path class="cls-8" d="m64.03,43.99c0,.11,0,.19-.02.24-.01.06-.03.1-.05.12s-.05.04-.1.06c-.04.02-.09.03-.15.05-.06.01-.12.02-.18.03-.07,0-.13.01-.2.01-.18,0-.33-.02-.47-.07-.13-.05-.24-.12-.33-.21s-.15-.21-.19-.36-.06-.31-.06-.51v-1.64h-.38s-.08-.03-.1-.08c-.02-.06-.04-.15-.04-.28,0-.07,0-.13,0-.18s.01-.09.03-.11.03-.05.04-.06c.02-.01.04-.02.06-.02h.38v-.71s0-.04.02-.06c.01-.02.04-.04.07-.05.04-.01.08-.02.14-.03s.13,0,.22,0,.16,0,.22,0,.1.02.14.03c.03.01.06.03.07.05.01.02.02.04.02.06v.71h.7s.04,0,.06.02c.02.01.03.03.04.06.01.03.02.07.03.11s0,.11,0,.18c0,.13-.01.22-.04.28-.02.06-.06.08-.1.08h-.7v1.5c0,.17.03.31.08.39.05.09.15.13.29.13.05,0,.09,0,.13-.01.04,0,.07-.02.1-.03.03-.01.05-.02.08-.03.02,0,.04-.01.06-.01.01,0,.03,0,.04.01.01,0,.02.03.03.05,0,.03.01.06.02.1s0,.1,0,.17Z"/>
    <path class="cls-8" d="m66.93,43.41c0,.18-.03.34-.1.48-.07.14-.17.25-.29.35-.12.09-.27.16-.44.21s-.35.07-.55.07c-.12,0-.23,0-.34-.03-.11-.02-.21-.04-.29-.07-.09-.03-.16-.06-.22-.08-.06-.03-.1-.06-.12-.08s-.05-.06-.06-.12-.02-.13-.02-.24c0-.07,0-.12,0-.17,0-.04.01-.08.02-.1,0-.03.02-.04.04-.05.01,0,.03-.01.05-.01.03,0,.07.01.12.04.05.03.12.06.19.1.08.04.17.07.27.1.1.03.22.05.35.05.08,0,.15,0,.22-.02.06-.02.12-.04.17-.07.05-.03.08-.07.11-.12.02-.05.04-.1.04-.17,0-.07-.02-.13-.07-.18-.04-.05-.1-.1-.18-.13-.07-.04-.16-.07-.25-.11s-.19-.07-.28-.11-.19-.09-.28-.14-.17-.12-.25-.19c-.07-.08-.13-.17-.18-.28-.04-.11-.07-.24-.07-.39s.03-.29.09-.42.15-.24.26-.33.25-.16.41-.21c.16-.05.34-.08.54-.08.1,0,.2,0,.29.02.09.01.18.03.26.05.08.02.14.04.19.07.05.03.09.05.11.06.02.02.04.04.05.05,0,.02.02.04.02.07,0,.02,0,.06.01.09,0,.04,0,.08,0,.14,0,.07,0,.12,0,.16,0,.04,0,.07-.02.1,0,.02-.02.04-.03.05-.01,0-.03.01-.05.01-.02,0-.06-.01-.1-.04-.05-.03-.1-.05-.17-.08-.07-.03-.15-.06-.24-.08s-.19-.04-.31-.04c-.08,0-.15,0-.21.03s-.11.04-.15.07c-.04.03-.07.07-.09.11-.02.04-.03.09-.03.13,0,.07.02.14.07.19.04.05.1.09.18.13s.16.07.25.11c.09.03.19.07.29.11.1.04.19.09.29.14s.18.12.25.19.13.17.18.27c.04.11.07.23.07.38Z"/>
  </g>
</svg>